<?xml version="1.0" encoding="utf-8" ?><svg xmlns="http://www.w3.org/2000/svg" xmlns:xlink="http://www.w3.org/1999/xlink" width="1945" height="708" viewBox="0 0 1945 708"><path fill="#F7F6F6" transform="scale(1.94476 1.94476)" d="M0 0L1000 0L1000 364L0 364L0 0Z"/><path fill="#232021" transform="scale(1.94476 1.94476)" d="M118.081 37.0756L142.577 37.0673L142.552 98.0856C142.544 125.681 140.722 167.679 151.352 192.89C161.858 159.958 160.058 134.148 160.061 100.276L160.045 37.0723L184.555 37.0681L184.525 108.562C184.521 123.767 183.811 142.627 186.063 157.368C187.909 169.363 191.556 181.011 196.879 191.916C214.98 228.895 245.199 251.383 283.436 264.514C283.374 272.426 283.385 280.338 283.47 288.249C263.332 282.498 250.839 277.155 233.191 266.132C205.22 248.124 188.616 228.813 173.61 199.546C167.573 214.549 160.882 228.834 151.282 241.918C142.757 231.684 133.965 211.841 128.818 199.549C127.564 202.098 126.281 204.634 124.97 207.154C108.376 238.857 78.3715 264.308 45.9255 278.755C37.1965 282.641 28.2063 285.382 19.1066 288.223L19.1004 264.473C70.6163 247.254 111.27 206.825 117.266 150.777C118.804 136.395 118.074 120.479 118.081 105.885L118.081 37.0756Z"/><path fill="#232021" transform="scale(1.94476 1.94476)" d="M410.239 36.3016C418.04 35.8165 453.217 35.0624 458.75 37.6438C460.644 38.5274 461.516 40.0979 462.169 42.0331C463.684 46.5245 463.19 147.699 462.786 160.047C462.728 161.807 462.77 164.323 461.911 165.906C460.443 168.611 458.107 169.67 455.307 170.498C441.024 171.044 426.135 170.502 411.843 170.464C407.973 170.454 403.14 167.968 402.896 163.901C402.129 151.118 402.483 137.059 402.475 124.303L402.452 73.4699C402.451 64.113 402.352 54.7463 402.593 45.3938C402.734 39.9103 404.944 37.3662 410.239 36.3016Z"/><path fill="#F7F6F6" transform="scale(1.94476 1.94476)" d="M422.594 55.3474C429.121 55.1832 436.242 55.3345 442.815 55.3435L442.796 151.405L422.622 151.4C422.333 141.119 422.585 129.473 422.582 119.099L422.594 55.3474Z"/><path fill="#232021" transform="scale(1.94476 1.94476)" d="M412.019 189.297C419.539 189.028 454.501 187.888 459.385 191.101C461.134 192.251 462.144 194.507 462.533 196.491C463.333 200.578 462.857 205.394 462.859 209.586L462.873 234.59L462.884 285.844C462.883 295.266 462.98 304.688 462.733 314.106C462.582 319.875 460.437 322.534 454.693 323.541L426.815 323.637C400.158 323.706 402.483 324.274 402.471 298.417L402.475 264.039L402.459 220.607C402.457 212.871 402.284 205.058 402.662 197.34C402.956 191.347 406.843 189.737 412.019 189.297Z"/><path fill="#F7F6F6" transform="scale(1.94476 1.94476)" d="M422.592 208.389C429.332 208.298 436.074 208.298 442.815 208.389L442.798 304.381L422.616 304.378C421.9 273.446 422.575 239.549 422.592 208.389Z"/><path fill="#232021" transform="scale(1.94476 1.94476)" d="M551.43 36.3767C563.637 35.4587 586.184 35.9784 598.919 36.8011C601.3 36.9549 603.14 39.8716 604.388 41.8004C604.907 46.5013 604.703 53.7584 604.706 58.6403L604.712 87.0556C604.711 111.533 604.735 136.013 604.666 160.489C604.649 166.443 603.122 168.747 597.35 170.493C589.357 170.813 553.87 171.803 548.394 169.001C546.671 168.119 545.549 166.514 544.974 164.684C543.391 159.64 544.388 128.289 544.386 120.368C544.379 96.0088 543.698 71.4189 544.46 47.0849C544.519 45.1923 544.473 42.4932 545.374 40.795C546.71 38.2796 548.83 37.183 551.43 36.3767Z"/><path fill="#F7F6F6" transform="scale(1.94476 1.94476)" d="M564.494 55.3256C571.11 55.2292 577.971 55.3393 584.607 55.3551L584.579 151.418L564.478 151.397L564.494 55.3256Z"/><path fill="#232021" transform="scale(1.94476 1.94476)" d="M814.915 36.1614L847.395 36.1035C853.52 36.0971 860.977 35.3518 866.956 36.7071C868.998 37.1699 870.943 38.5703 872.038 40.3708C874.601 44.5894 873.913 82.1385 872.374 88.12C871.155 92.8557 867.482 95.337 863.509 97.656C872.847 102.267 873.339 108.21 873.464 117.903C873.517 122.008 873.46 126.186 873.447 130.295L873.43 161.319C872.82 166.595 870.744 169.759 865.272 170.277C859.325 170.84 853.347 170.637 847.376 170.63L814.92 170.569L814.915 36.1614Z"/><path fill="#F7F6F6" transform="scale(1.94476 1.94476)" d="M836.11 107.227L853.304 107.26C853.311 112.888 853.935 148.449 852.931 151.424L834.963 151.412L834.941 123.218C834.94 118.799 834.731 112.04 835.078 107.766L836.11 107.227Z"/><path fill="#F7F6F6" transform="scale(1.94476 1.94476)" d="M834.99 55.3484C841.079 55.2949 847.169 55.3024 853.258 55.3709C853.444 66.0967 853.28 77.2438 853.269 88.0011L834.961 88.0296L834.99 55.3484Z"/><path fill="#232021" transform="scale(1.94476 1.94476)" d="M332.471 36.1562C342.231 36.1389 378.515 35.0084 385.216 36.8402C386.942 37.3119 388.79 38.837 389.634 40.4105C391.668 44.2051 391.503 83.5704 389.932 88.298C388.387 92.9473 385.189 95.3946 380.988 97.5316C383.232 98.6763 384.812 99.4517 386.616 101.231C388.407 102.993 389.638 105.246 390.154 107.706C391.165 112.349 390.848 123.126 390.845 128.373L390.817 161.597C390.582 166.595 388.232 169.787 383.095 170.278C377.196 170.841 371.179 170.632 365.249 170.626L332.435 170.574L332.471 36.1562Z"/><path fill="#F7F6F6" transform="scale(1.94476 1.94476)" d="M353.916 107.233L370.75 107.248L370.749 136.564C370.748 139.934 370.954 147.913 370.561 151L369.649 151.416L352.585 151.4C352.568 144.722 351.747 112.341 352.892 107.673L353.916 107.233Z"/><path fill="#F7F6F6" transform="scale(1.94476 1.94476)" d="M352.605 55.3475C358.453 55.1969 364.858 55.3355 370.749 55.3439L370.714 87.9962L352.579 88.0194L352.605 55.3475Z"/><path fill="#232021" transform="scale(1.94476 1.94476)" d="M616.454 36.1564L672.844 36.1638L672.843 55.3555C660.806 55.204 648.53 55.3249 636.475 55.3225L636.512 86.1005C646.917 86.2445 658.131 85.3468 668.322 86.7836C677.073 88.0173 674.895 101.128 674.85 107.417L674.822 134.118C674.747 150.48 680.341 174.185 659.674 170.639C657.5 170.266 652.375 170.621 649.922 170.618L616.36 170.573C616.188 126.596 615.655 79.9747 616.454 36.1564Z"/><path fill="#F7F6F6" transform="scale(1.94476 1.94476)" d="M636.49 105.248C642.366 105.098 648.779 105.231 654.697 105.234L654.685 151.416L636.519 151.395C636.302 136.207 636.497 120.478 636.49 105.248Z"/><path fill="#232021" transform="scale(1.94476 1.94476)" d="M474.557 189.234L507.401 189.172C511.787 189.162 532.028 187.75 532.656 193.814C535.262 218.97 533.258 245.711 533.664 271.093C533.89 285.247 504.514 277.238 495.055 279.768C494.268 280.689 494.496 282.451 494.513 283.749L494.539 323.571L474.415 323.565L474.416 237.103C474.409 221.848 473.997 204.343 474.557 189.234Z"/><path fill="#F7F6F6" transform="scale(1.94476 1.94476)" d="M494.559 208.355C500.877 208.243 507.413 208.356 513.747 208.384L513.688 260.289L494.528 260.294L494.559 208.355Z"/><path fill="#232021" transform="scale(1.94476 1.94476)" d="M474.48 36.1555C482.895 36.1429 525.697 34.8709 529.959 37.6553C531.643 38.7554 533.021 40.8871 533.406 42.8572C534.759 49.7727 533.829 67.381 533.831 75.2513L533.821 102.583C533.817 107.743 534.085 113.081 533.614 118.215C533.456 119.935 533.05 121.519 532.03 122.94C527.364 129.443 503.163 125.181 495.149 126.572C494.278 127.637 494.557 128.713 494.512 130.332L494.54 170.58L474.415 170.576L474.48 36.1555Z"/><path fill="#F7F6F6" transform="scale(1.94476 1.94476)" d="M494.515 55.331C500.881 55.2653 507.37 55.3374 513.748 55.3421L513.728 107.242C507.615 107.442 500.703 107.276 494.531 107.265L494.515 55.331Z"/><path fill="#232021" transform="scale(1.94476 1.94476)" d="M685.478 36.1539L705.52 36.1649L705.523 86.1048C748.793 86.8617 743.767 78.6631 743.816 124.216L743.827 148.505C743.822 154.042 744.721 163.599 741.505 167.979C736.435 171.794 724.837 170.642 718.373 170.634L685.435 170.575L685.478 36.1539Z"/><path fill="#F7F6F6" transform="scale(1.94476 1.94476)" d="M705.563 105.242C711.548 105.147 717.741 105.225 723.745 105.218L723.702 151.406L705.526 151.397L705.563 105.242Z"/><path fill="#232021" transform="scale(1.94476 1.94476)" d="M884.872 36.1579L904.927 36.163L904.933 86.1428C914.21 86.0678 923.959 85.6501 933.144 86.4755C942.201 87.2894 940.484 99.4086 940.493 105.89L940.508 128.616L940.491 151.275C940.482 157.517 941.6 163.104 937.867 168.299C932.817 171.655 922 170.64 915.861 170.635L884.882 170.57L884.872 36.1579Z"/><path fill="#F7F6F6" transform="scale(1.94476 1.94476)" d="M904.932 105.259C909.912 105.121 915.393 105.228 920.412 105.222L920.391 151.411L904.937 151.411L904.932 105.259Z"/><path fill="#232021" transform="scale(1.94476 1.94476)" d="M544.501 189.234L564.482 189.256L564.479 239.127C573.355 239.404 583.211 238.462 592.025 239.432C595.786 239.846 597.407 241.377 599.421 244.28C599.445 244.416 599.469 244.552 599.492 244.689C599.917 247.259 600.003 250.146 599.983 252.757C599.825 273.558 600.372 294.43 599.768 315.213C599.706 317.347 599.026 319.136 597.796 320.874C593.008 324.765 581.806 323.636 575.601 323.627L544.401 323.56C544.395 279.512 543.614 233.078 544.501 189.234Z"/><path fill="#F7F6F6" transform="scale(1.94476 1.94476)" d="M564.466 258.413C569.515 258.321 574.864 258.42 579.938 258.427L579.941 304.376L564.482 304.376L564.466 258.413Z"/><path fill="#232021" transform="scale(1.94476 1.94476)" d="M754.437 36.1564L804.25 36.1621L804.233 55.3408L774.451 55.3235L774.461 88.0141L803.36 88.01L803.311 107.229L774.452 107.28L774.457 141.936L774.466 151.398L804.23 151.432L804.23 170.572L754.394 170.573L754.437 36.1564Z"/><path fill="#232021" transform="scale(1.94476 1.94476)" d="M199.162 113.301L223.636 113.302C223.582 130.842 222.436 147.292 228.111 163.958C238.016 193.05 256.839 210.022 283.44 223.527C283.293 231.535 283.403 239.924 283.389 247.961C264.295 241.268 246.959 230.343 232.679 216.002C214.618 197.885 202.225 173.222 199.745 147.665C198.764 137.563 199.144 123.77 199.162 113.301Z"/><path fill="#232021" transform="scale(1.94476 1.94476)" d="M78.6695 113.312L103.216 113.306C103.245 131.409 104.244 148.237 99.077 165.631C88.7074 200.538 67.3732 223.026 36.4607 240.397C31.0999 243.216 24.7628 245.768 19.1173 247.918L19.104 223.273C52.0906 207.5 76.2503 178.848 78.4993 141.091C79.0357 132.085 78.6816 122.381 78.6695 113.312Z"/><path fill="#232021" transform="scale(1.94476 1.94476)" d="M332.542 189.235L390.614 189.25L390.603 208.381C377.927 208.283 365.25 208.289 352.575 208.398L352.573 285.581L352.578 323.553L332.432 323.565L332.425 237.242C332.425 221.523 332.162 204.894 332.542 189.235Z"/><path fill="#232021" transform="scale(1.94476 1.94476)" d="M126.729 234.881C129.545 238.022 137.188 251.835 140.038 256.313C111.059 289.706 72.3802 313.208 29.4047 323.537L19.1065 325.923L19.0894 302.759C63.6754 291.254 97.9802 271.489 126.729 234.881Z"/><path fill="#232021" transform="scale(1.94476 1.94476)" d="M176.375 235.833C207.236 272.699 237.139 290.637 283.447 302.795C283.277 310.259 283.419 318.413 283.419 325.926C279.687 325.137 275.817 324.197 272.087 323.342C228.066 312.754 193.545 290.017 163.096 257.233C167.783 250.265 172.212 243.127 176.375 235.833Z"/><path fill="#232021" transform="scale(1.94476 1.94476)" d="M607.705 189.238L627.863 189.274L627.884 323.575L607.605 323.571C607.699 279.208 606.94 233.457 607.705 189.238Z"/><path fill="#232021" transform="scale(1.94476 1.94476)" d="M948.209 36.1618L968.265 36.1643L968.25 170.556L948.193 170.581L948.209 36.1618Z"/><path fill="#232021" transform="scale(1.94476 1.94476)" d="M734.554 194.165C738.873 194.103 752.388 192.916 754.846 196.202C755.684 200.753 756.011 245.459 754.834 247.909C753.862 249.059 753.566 249.061 752.075 249.344C748.307 249.283 733.741 250.302 731.491 247.874C730.221 243.863 729.966 199.678 731.237 195.854C732.738 194.364 732.265 194.807 734.554 194.165Z"/><path fill="#F7F6F6" transform="scale(1.94476 1.94476)" d="M738.842 201.982L747.267 201.966L747.222 241.481L738.827 241.443L738.842 201.982Z"/><path fill="#232021" transform="scale(1.94476 1.94476)" d="M703.443 265.79C708.666 265.717 720.427 264.67 725.312 267.17C726.025 267.536 726.194 270.744 726.194 271.717C726.197 287.171 726.591 302.725 725.961 318.158C725.92 319.151 725.125 320.122 724.472 320.815C721.183 321.109 704.922 321.737 702.408 319.859C701.881 318.306 701.58 315.981 701.581 314.325C701.593 299.074 701.136 283.711 701.801 268.486C701.853 267.299 702.704 266.616 703.443 265.79Z"/><path fill="#F7F6F6" transform="scale(1.94476 1.94476)" d="M709.711 273.628L718.045 273.621C718.132 286.804 718.122 299.988 718.017 313.171L709.717 313.161L709.711 273.628Z"/><path fill="#232021" transform="scale(1.94476 1.94476)" d="M731.022 265.759L741.055 265.752C743.532 275.468 745.775 287.544 747.912 297.515C749.746 290.647 753.761 272.595 754.734 265.768L765.006 265.764L765.014 320.978L756.637 320.985C756.721 312.549 756.173 300.324 757.223 292.264C757.355 290.305 757.892 284.681 757.487 283.095C756.119 286.858 752.879 304.903 751.914 309.82L744.126 309.827C743.327 305.46 739.618 285.711 738.399 282.787C738.142 284.245 738.22 285.39 738.376 286.849C739.593 298.239 739.352 309.51 739.342 320.965L731.02 320.999L731.022 265.759Z"/><path fill="#232021" transform="scale(1.94476 1.94476)" d="M845.092 194.11C851.368 194.196 857.678 193.765 863.91 194.074C869.935 194.373 869.544 200.403 869.357 204.766C869.185 208.77 869.213 212.621 868.583 216.598C868.178 216.967 867.779 217.341 867.386 217.721C864.167 220.869 868.061 220.388 868.61 223.154C869.74 228.842 869.157 240.269 869.121 246.235C868.767 247.431 868.692 247.553 867.816 248.442C864.673 250.091 849.285 249.357 845.094 249.329L845.092 194.11Z"/><path fill="#F7F6F6" transform="scale(1.94476 1.94476)" d="M853.417 223.36L860.878 223.369L860.882 241.492L853.401 241.461L853.417 223.36Z"/><path fill="#F7F6F6" transform="scale(1.94476 1.94476)" d="M853.479 201.967L860.887 201.956L860.88 215.504L853.401 215.489C853.404 210.981 853.43 206.474 853.479 201.967Z"/><path fill="#232021" transform="scale(1.94476 1.94476)" d="M943.376 194.118L951.605 194.101L951.607 222.424C957.235 210.776 960.823 206.709 960.619 194.112L968.867 194.129C968.872 199.784 969.177 248.055 968.452 249.186L966.919 249.329L960.576 249.283L960.629 218.515C953.709 233.576 951.333 232.726 951.613 249.347L943.298 249.308C943.29 230.967 943.166 212.443 943.376 194.118Z"/><path fill="#232021" transform="scale(1.94476 1.94476)" d="M814.62 194.106L822.934 194.131C822.825 203.548 822.877 212.966 823.091 222.381C825.966 216.097 830.239 208.179 831.921 201.582C832.15 200.685 832.063 195.354 832.042 194.119L840.375 194.118C840.329 200.043 840.8 247.374 840.021 249.116L838.501 249.319L832.04 249.325C832.085 238.994 832.055 228.664 831.95 218.334C825.791 231.495 822.593 234.431 822.936 249.375L814.592 249.306L814.62 194.106Z"/><path fill="#232021" transform="scale(1.94476 1.94476)" d="M760.328 194.116C763.478 194.142 784.235 192.743 784.364 196.56C784.712 206.87 785.373 219.193 784.099 229.327C783.691 232.569 771.656 230.622 768.915 231.466L768.501 232.464L768.519 249.354L760.263 249.309L760.328 194.116Z"/><path fill="#F7F6F6" transform="scale(1.94476 1.94476)" d="M768.561 201.972L776.385 201.969L776.377 223.344L768.523 223.327C768.492 216.208 768.505 209.09 768.561 201.972Z"/><path fill="#232021" transform="scale(1.94476 1.94476)" d="M769.829 265.764L794.957 265.763L794.947 320.974L786.611 320.981L786.635 281.672L786.641 273.623L777.918 273.603L777.943 320.975L769.702 320.986C770.017 302.694 769.601 284.126 769.829 265.764Z"/><path fill="#232021" transform="scale(1.94476 1.94476)" d="M700.693 194.102L725.835 194.136L725.827 249.37L717.671 249.309L717.688 209.988L717.692 201.965L708.957 201.959L708.971 249.365L700.645 249.302L700.693 194.102Z"/><path fill="#232021" transform="scale(1.94476 1.94476)" d="M891.275 194.122L899.464 194.138L899.47 229.692C899.477 234.279 899.737 244.861 899.215 248.875C897.889 249.562 895.505 249.329 893.921 249.303C892.85 249.361 892.321 249.494 891.444 248.841C890.937 246.38 891.216 227.032 891.23 223.369L882.112 223.363L882.104 249.339L873.939 249.319L873.986 194.122L882.174 194.143L882.114 215.493L891.237 215.5L891.275 194.122Z"/><path fill="#232021" transform="scale(1.94476 1.94476)" d="M803.655 265.765L823.736 265.757L823.725 320.963L815.473 320.987L815.486 275.443C815.479 274.991 815.274 274.45 815.14 273.994C813.427 273.297 814.13 273.392 812.271 273.661C812.041 273.925 811.762 274.245 811.436 274.619C810.305 288.217 809.508 307.946 808.6 320.967L797.773 320.987C797.728 317.991 797.016 314.361 799.898 312.892C799.995 312.842 800.76 312.052 800.761 312.042C802.207 296.663 802.48 281.187 803.655 265.765Z"/><path fill="#232021" transform="scale(1.94476 1.94476)" d="M904.349 194.113L912.549 194.11L912.519 214.595C916.185 214.544 923.791 213.768 926.145 216.01C927.736 220.401 927.755 244.682 926.281 248.732C923.511 249.762 907.92 249.35 904.276 249.337L904.349 194.113Z"/><path fill="#F7F6F6" transform="scale(1.94476 1.94476)" d="M912.528 222.702L918.927 222.644L918.904 241.434L912.524 241.46L912.528 222.702Z"/><path fill="#232021" transform="scale(1.94476 1.94476)" d="M871.133 265.756L879.707 265.778L871.311 291.034C873.846 300.355 876.483 309.649 879.222 318.912C879.468 320.226 879.583 319.804 879.018 320.679C876.88 321.342 873.349 321.048 870.989 320.973C870.061 316.906 864.986 297.301 862.922 295.086L862.29 295.241C861 297.932 861.592 316.586 861.617 320.965L853.43 320.986L853.456 265.768L861.644 265.757C861.604 269.167 860.706 285.218 863.086 286.666C865.276 285 870.015 269.053 871.133 265.756Z"/><path fill="#232021" transform="scale(1.94476 1.94476)" d="M690.025 265.76L698.602 265.776C696.151 273.977 692.942 282.887 690.159 291.061L697.928 318.447C698.359 319.98 698.484 319.522 697.856 320.667C695.726 321.378 692.126 321.065 689.761 320.991C689.15 317.507 683.86 295.917 681.322 295.079C679.794 297.298 680.502 316.908 680.534 320.964L672.306 320.992L672.318 265.783L680.533 265.77C680.488 269.917 679.672 284.272 681.893 286.631C684.408 284.954 688.744 269.696 690.025 265.76Z"/><path fill="#232021" transform="scale(1.94476 1.94476)" d="M884.364 265.884C890.626 265.487 900.146 265.763 906.659 265.757L906.625 281.457L898.393 281.461L898.406 273.633L890.772 273.604L890.818 313.174C892.724 313.247 896.346 313.658 897.776 312.711C898.716 311.028 898.406 310.603 898.41 308.545L898.428 302.903L906.657 302.889L906.639 320.968C901.815 321.01 886.859 321.774 883.643 319.801C881.387 315.799 882.765 278.527 882.539 271.465C882.471 269.322 882.696 267.413 884.364 265.884Z"/><path fill="#232021" transform="scale(1.94476 1.94476)" d="M675.309 194.17C682.094 193.987 689.524 194.13 696.36 194.122L696.343 209.772L688.019 209.864L688.024 201.941L680.514 201.97L680.524 241.456L687.977 241.489L688.018 234.924C687.969 233.714 687.778 232.707 688.495 231.755C690.515 230.631 693.804 231.158 696.353 231.232L696.338 249.335C692.133 249.347 676.155 250.034 673.174 248.301C671.879 244.133 671.899 202.369 672.552 196.265C673.714 194.585 673.246 195.106 675.309 194.17Z"/><path fill="#232021" transform="scale(1.94476 1.94476)" d="M828.566 265.766L849.016 265.763L849.012 273.613L836.733 273.618L836.736 287.056L848.621 287.034L848.605 294.789L836.726 294.902L836.739 309.4C836.72 309.933 836.753 312.006 837.062 312.316C838.696 313.959 846.18 313.205 849.001 313.174L849.015 320.978L828.532 320.984L828.566 265.766Z"/><path fill="#232021" transform="scale(1.94476 1.94476)" d="M787.582 194.11L811.502 194.13L811.505 201.901L803.614 201.969L803.629 241.608L803.627 249.348L795.391 249.314L795.402 201.954L787.542 201.94L787.582 194.11Z"/><path fill="#232021" transform="scale(1.94476 1.94476)" d="M930.29 194.118L938.573 194.107L938.541 249.348L930.233 249.324L930.29 194.118Z"/><path fill="#232021" transform="scale(1.94476 1.94476)" d="M784.738 16.077L800.176 16.0736L800.108 30.3451L784.728 30.3399L784.738 16.077Z"/><path fill="#232021" transform="scale(1.94476 1.94476)" d="M758.866 16.0761L774.104 16.0733L774.037 30.3481L758.896 30.3417L758.866 16.0761Z"/><path fill="#232021" transform="scale(1.94476 1.94476)" d="M949.887 185.899L960.893 185.832C960.547 187.665 960.06 189.535 959.616 191.351C958.21 191.995 952.81 191.724 950.972 191.693C950.595 189.764 950.234 187.833 949.887 185.899Z"/></svg>